<?xml version="1.0" encoding="utf-8"?>
<!-- Generator: Adobe Illustrator 18.1.0, SVG Export Plug-In . SVG Version: 6.00 Build 0)  -->
<svg version="1.1" id="Layer_1" xmlns="http://www.w3.org/2000/svg" xmlns:xlink="http://www.w3.org/1999/xlink" x="0px" y="0px"
	 viewBox="0 0 141.7 141.7" enable-background="new 0 0 141.7 141.7" xml:space="preserve">
<g>
	<path fill="#FFFFFF" d="M71.1,140c-37.8,0-68.5-30.7-68.5-68.5c0-18.3,7.1-35.5,20-48.5C35.5,10,52.7,2.9,71,2.9
		c37.8,0,68.6,30.7,68.6,68.5C139.7,109.2,109,139.9,71.1,140L71.1,140z"/>
</g>
<g>
	<path d="M71,4.6L71,4.6c36.9,0,66.9,30,66.9,66.8c0,36.9-29.9,66.9-66.8,66.9h-0.1c-36.8,0-66.8-30-66.8-66.8
		c0-17.9,6.9-34.6,19.5-47.3C36.4,11.6,53.2,4.6,71,4.6 M71,2.9C52.7,2.9,35.5,10,22.6,23c-12.9,13-20,30.2-20,48.5
		c0,37.8,30.8,68.5,68.5,68.5h0.1c37.8,0,68.5-30.8,68.5-68.6C139.6,33.6,108.9,2.9,71,2.9L71,2.9z"/>
</g>
<g>
	<g>
		<path d="M71.1,60.8c-7.7,0-13.9-6.2-13.9-13.9c0-7.7,6.2-13.9,13.9-13.9c7.7,0,13.9,6.2,13.9,13.9C85,54.6,78.8,60.8,71.1,60.8z
			 M71.1,34.1c-7.1,0-12.9,5.8-12.9,12.9c0,7.1,5.8,12.9,12.9,12.9C78.2,59.8,84,54,84,46.9C84,39.8,78.2,34.1,71.1,34.1z"/>
		<path d="M63.9,39.6v10c0,4,3.3,7.3,7.3,7.3c4,0,7.3-3.3,7.3-7.3v-10H63.9z M65.1,51.3l0.9-1.6l0.9,1.6H65.1z M68.1,51.3l-1.5-2.6
			l0.7-1.2l2.2,3.9H68.1z M70.7,51.3l-2.8-4.9l0.7-1.2l3.5,6.1H70.7z M73.3,51.3l-4.1-7.1l0.7-1.2l4.8,8.3H73.3z M75.9,51.3
			l-5.4-9.4l0.7-1.2l6.1,10.6H75.9z"/>
	</g>
	<g>
		<path d="M35.6,82.6h1.8c3,0,3.4-1.8,3.4-6.4c0-4.6-0.4-6.4-3.4-6.4h-1.8V82.6z M38.2,66.6c5.2,0,6.8,2.7,6.8,9.7
			c0,6.9-1.6,9.7-6.8,9.7h-6.6V66.6H38.2z M47.1,66.6h10.4v3.3h-6.4V74H57v3.4h-5.9v5.1h6.4v3.4H47.1V66.6z M68.7,78.2l-1.9-8l-2,8
			H68.7z M69.5,81.6h-5.6l-1,4.3h-4.1l5.5-19.3h5.2l5.4,19.3h-4.2L69.5,81.6z M76.1,66.6h4V75l5-8.4h4.2l-5.6,8.9l5.6,10.4h-4.7
			l-4.6-9.4v9.4h-4V66.6z M91.1,66.6H95v19.3h-3.9V66.6z M101.1,73.2v12.7h-3.5V66.6h4.9l4.7,11.9V66.6h3.5v19.3h-4.4L101.1,73.2z"
			/>
		<g>
			<path d="M37.2,97.2V91c0-0.1,0-0.1,0.1-0.1s0.2-0.1,0.3-0.1s0.3,0,0.4-0.1s0.2,0,0.3,0c0.1,0,0.2,0,0.3,0.1
				c0.1,0.1,0.1,0.2,0.1,0.3v6.2c0,0.7-0.1,1.2-0.2,1.7c-0.2,0.5-0.4,0.8-0.7,1.1c-0.3,0.3-0.7,0.5-1.1,0.6c-0.5,0.1-1,0.2-1.6,0.2
				h-0.1c-0.6,0-1.1-0.1-1.6-0.2c-0.5-0.1-0.8-0.3-1.1-0.6c-0.3-0.3-0.5-0.6-0.7-1.1c-0.2-0.5-0.2-1-0.2-1.7V91c0-0.1,0-0.1,0.1-0.1
				s0.2-0.1,0.3-0.1c0.1,0,0.3,0,0.4-0.1c0.1,0,0.3,0,0.3,0c0.1,0,0.2,0,0.3,0.1c0.1,0.1,0.1,0.2,0.1,0.3v6.1c0,0.4,0,0.7,0.1,1
				s0.2,0.5,0.3,0.7c0.2,0.2,0.4,0.3,0.6,0.4c0.3,0.1,0.6,0.1,1,0.1h0.1c0.4,0,0.7,0,1-0.1s0.5-0.2,0.6-0.4c0.2-0.2,0.3-0.4,0.3-0.7
				C37.2,97.9,37.2,97.6,37.2,97.2z"/>
			<path d="M47.6,97.8v-6.9c0-0.1,0-0.1,0.2-0.1c0.1,0,0.2-0.1,0.4-0.1c0.1,0,0.3,0,0.4,0c0.1,0,0.3,0,0.3,0c0.2,0,0.4,0.1,0.4,0.4
				v9.4c0,0.1,0,0.2-0.1,0.3c-0.1,0.1-0.2,0.1-0.3,0.1c-0.1,0-0.2,0-0.3,0s-0.2,0-0.4,0c-0.1,0-0.2,0-0.3-0.1s-0.2-0.1-0.2-0.1
				l-4.4-6.8v6.7c0,0.1,0,0.2-0.1,0.3s-0.2,0.1-0.3,0.1c-0.1,0-0.2,0-0.3,0c-0.1,0-0.3,0-0.4,0s-0.2,0-0.3-0.1s-0.1-0.1-0.1-0.1V91
				c0-0.1,0-0.1,0.1-0.1s0.2-0.1,0.3-0.1c0.1,0,0.3,0,0.4,0c0.1,0,0.2,0,0.3,0c0.1,0,0.2,0,0.3,0.1c0.1,0.1,0.1,0.1,0.2,0.2
				L47.6,97.8z"/>
			<path d="M53.5,100.5c0,0.1,0,0.2-0.1,0.3s-0.2,0.1-0.3,0.1c-0.1,0-0.2,0-0.3,0c-0.1,0-0.3,0-0.4,0c-0.1,0-0.2,0-0.3-0.1
				s-0.1-0.1-0.1-0.1V91c0-0.1,0-0.1,0.1-0.1s0.2-0.1,0.3-0.1c0.1,0,0.3,0,0.4,0c0.1,0,0.2,0,0.3,0c0.1,0,0.2,0,0.3,0.1
				c0.1,0.1,0.1,0.2,0.1,0.3V100.5z"/>
			<path d="M59.5,98l2.1-7.1c0.1-0.1,0.3-0.2,0.4-0.2c0.2,0,0.4,0,0.6,0c0.1,0,0.2,0,0.3,0c0.1,0,0.2,0,0.2,0.1
				c0.1,0,0.1,0.1,0.2,0.1c0,0.1,0,0.1,0,0.3l-3.2,9.5c0,0.1-0.1,0.1-0.1,0.2s-0.2,0.1-0.2,0.1c-0.3,0-0.6,0-0.8,0s-0.3-0.1-0.4-0.2
				l-3.2-9.5c0-0.1,0-0.2,0-0.2c0-0.1,0.1-0.1,0.1-0.1c0.1,0,0.1-0.1,0.2-0.1s0.1,0,0.2,0c0.1,0,0.3,0,0.4,0c0.1,0,0.3,0,0.4,0
				c0.1,0,0.2,0.1,0.3,0.1c0.1,0,0.1,0.1,0.2,0.2l2.1,7c0,0.1,0.1,0.2,0.1,0.3s0,0.2,0,0.3c0-0.1,0-0.2,0-0.3S59.5,98.1,59.5,98z"/>
			<path d="M65.2,100.4v-9.2c0-0.1,0-0.2,0.1-0.3c0.1-0.1,0.2-0.1,0.3-0.1h5.5c0.1,0,0.2,0,0.3,0.1c0.1,0.1,0.1,0.2,0.1,0.3
				c0,0.1,0,0.2,0,0.3s0,0.2,0,0.4c0,0.1,0,0.2-0.1,0.3c0,0.1-0.1,0.1-0.1,0.1h-4.4v2.7h3.8c0.1,0,0.2,0,0.2,0.1
				c0.1,0.1,0.1,0.2,0.1,0.3c0,0.1,0,0.2,0,0.3c0,0.1,0,0.2,0,0.4c0,0.1,0,0.2-0.1,0.3c0,0.1-0.1,0.1-0.1,0.1h-3.8v2.8h4.3
				c0.1,0,0.2,0,0.3,0.1s0.1,0.2,0.1,0.3c0,0.1,0,0.2,0,0.3c0,0.1,0,0.2,0,0.4c0,0.1,0,0.2-0.1,0.3s-0.1,0.1-0.1,0.1h-5.4
				c-0.1,0-0.3,0-0.4-0.1S65.2,100.5,65.2,100.4z"/>
			<path d="M73.8,100.5v-9.4c0-0.1,0-0.2,0.1-0.3c0.1-0.1,0.2-0.1,0.3-0.1h3c0.6,0,1.2,0,1.6,0.1c0.4,0.1,0.8,0.3,1.1,0.5
				c0.3,0.2,0.5,0.5,0.6,0.9c0.1,0.4,0.2,0.9,0.2,1.4v0.3c0,0.4,0,0.8-0.1,1.1s-0.2,0.6-0.3,0.8c-0.1,0.2-0.3,0.4-0.6,0.5
				c-0.2,0.1-0.5,0.2-0.9,0.3l1.9,3.3c0.1,0.2,0.2,0.3,0.2,0.4c0,0.1,0,0.1-0.1,0.1s-0.1,0.1-0.1,0.1c-0.1,0-0.1,0-0.2,0
				c-0.1,0-0.1,0-0.1,0c-0.1,0-0.2,0-0.3,0s-0.3,0-0.4,0s-0.2-0.1-0.4-0.1c-0.1,0-0.2-0.1-0.2-0.2l-2-3.4h-1.7v3.4
				c0,0.1,0,0.2-0.1,0.3s-0.2,0.1-0.3,0.1c-0.1,0-0.2,0-0.3,0c-0.1,0-0.3,0-0.4,0c-0.1,0-0.2,0-0.3-0.1S73.8,100.6,73.8,100.5z
				 M77.3,92.3h-1.9v3.3h1.9c0.4,0,0.7,0,0.9-0.1c0.2,0,0.4-0.1,0.5-0.2S79,95,79,94.8s0.1-0.4,0.1-0.8v-0.3c0-0.3,0-0.6-0.1-0.8
				c0-0.2-0.1-0.3-0.2-0.5s-0.3-0.2-0.5-0.2C78,92.3,77.7,92.3,77.3,92.3z"/>
			<path d="M83,99.1c0.1,0,0.2,0,0.3,0.1s0.3,0.1,0.5,0.1s0.4,0.1,0.6,0.1s0.5,0,0.7,0c0.3,0,0.5,0,0.7-0.1s0.4-0.1,0.6-0.2
				s0.3-0.2,0.4-0.4c0.1-0.2,0.2-0.4,0.2-0.6c0-0.3-0.1-0.6-0.3-0.8c-0.2-0.2-0.5-0.4-0.8-0.6c-0.3-0.2-0.7-0.4-1.1-0.6
				c-0.4-0.2-0.7-0.4-1.1-0.7c-0.3-0.3-0.6-0.6-0.8-1c-0.2-0.4-0.3-0.8-0.3-1.3c0-0.4,0.1-0.8,0.2-1.1c0.2-0.3,0.4-0.6,0.7-0.8
				c0.3-0.2,0.6-0.3,1-0.4c0.4-0.1,0.8-0.1,1.3-0.1c0.1,0,0.3,0,0.5,0c0.2,0,0.4,0,0.6,0c0.2,0,0.5,0.1,0.7,0.1
				c0.2,0,0.4,0.1,0.5,0.2c0.1,0.1,0.2,0.1,0.2,0.2c0,0.1,0,0.2,0,0.3c0,0.2-0.1,0.4-0.2,0.6c-0.1,0.2-0.2,0.2-0.3,0.2
				c-0.2,0-0.5-0.1-0.8-0.1c-0.3,0-0.6-0.1-1-0.1c-0.6,0-1,0.1-1.4,0.2c-0.4,0.2-0.5,0.4-0.5,0.8c0,0.3,0.1,0.6,0.3,0.8
				c0.2,0.2,0.5,0.4,0.8,0.6c0.3,0.2,0.7,0.4,1.1,0.6c0.4,0.2,0.7,0.4,1.1,0.7c0.3,0.3,0.6,0.6,0.8,1c0.2,0.4,0.3,0.9,0.3,1.4
				c0,0.5-0.1,0.9-0.3,1.3c-0.2,0.3-0.5,0.6-0.8,0.8c-0.3,0.2-0.7,0.3-1.1,0.4c-0.4,0.1-0.9,0.1-1.3,0.1c-0.2,0-0.4,0-0.7,0
				c-0.2,0-0.5,0-0.7-0.1c-0.2,0-0.4-0.1-0.6-0.1s-0.4-0.1-0.5-0.1c-0.1,0-0.2-0.1-0.2-0.2s0-0.2,0-0.3c0-0.3,0.1-0.5,0.2-0.7
				C82.8,99.2,82.9,99.1,83,99.1z"/>
			<path d="M92.6,100.5c0,0.1,0,0.2-0.1,0.3s-0.2,0.1-0.3,0.1c-0.1,0-0.2,0-0.3,0c-0.1,0-0.3,0-0.4,0c-0.1,0-0.2,0-0.3-0.1
				s-0.1-0.1-0.1-0.1V91c0-0.1,0-0.1,0.1-0.1s0.2-0.1,0.3-0.1c0.1,0,0.3,0,0.4,0c0.1,0,0.2,0,0.3,0c0.1,0,0.2,0,0.3,0.1
				c0.1,0.1,0.1,0.2,0.1,0.3V100.5z"/>
			<path d="M99,92.3v8.2c0,0.1,0,0.2-0.1,0.3s-0.2,0.1-0.3,0.1c-0.1,0-0.2,0-0.3,0s-0.3,0-0.4,0s-0.2,0-0.3-0.1s-0.1-0.1-0.1-0.1
				v-8.3h-2.5c-0.1,0-0.2,0-0.3-0.1c-0.1-0.1-0.1-0.2-0.1-0.3c0-0.1,0-0.2,0-0.3c0-0.1,0-0.2,0-0.4c0-0.1,0-0.2,0.1-0.3
				c0-0.1,0.1-0.1,0.1-0.1h6.7c0.1,0,0.2,0,0.3,0.1c0.1,0.1,0.1,0.2,0.1,0.3c0,0.1,0,0.2,0,0.3c0,0.1,0,0.2,0,0.4
				c0,0.1,0,0.2-0.1,0.3c0,0.1-0.1,0.1-0.1,0.1H99z"/>
			<path d="M107.7,97.1v3.4c0,0.1,0,0.2-0.1,0.3s-0.2,0.1-0.3,0.1c-0.1,0-0.2,0-0.3,0c-0.1,0-0.3,0-0.4,0c-0.1,0-0.2,0-0.3-0.1
				s-0.1-0.1-0.1-0.1v-3.5l-3-5.8c-0.1-0.2-0.1-0.3,0-0.4c0.1-0.1,0.2-0.1,0.4-0.1c0.1,0,0.3,0,0.4,0c0.1,0,0.3,0,0.4,0
				c0.1,0,0.2,0,0.3,0.1c0.1,0,0.1,0.1,0.2,0.1l2.2,4.5l2.2-4.5c0-0.1,0.1-0.1,0.2-0.1c0.1,0,0.2-0.1,0.3-0.1c0.1,0,0.2,0,0.4,0
				c0.1,0,0.3,0,0.4,0c0.2,0,0.3,0,0.4,0.1c0.1,0.1,0.1,0.2,0,0.4L107.7,97.1z"/>
		</g>
	</g>
</g>
</svg>
