<?xml version="1.0" encoding="UTF-8" standalone="no"?>
<!-- Created with Inkscape (http://www.inkscape.org/) -->

<svg
   xmlns:dc="http://purl.org/dc/elements/1.1/"
   xmlns:cc="http://creativecommons.org/ns#"
   xmlns:rdf="http://www.w3.org/1999/02/22-rdf-syntax-ns#"
   xmlns:svg="http://www.w3.org/2000/svg"
   xmlns="http://www.w3.org/2000/svg"
   xmlns:sodipodi="http://sodipodi.sourceforge.net/DTD/sodipodi-0.dtd"
   xmlns:inkscape="http://www.inkscape.org/namespaces/inkscape"
   id="svg2"
   version="1.1"
   inkscape:version="0.48.5 r10040"
   width="82.380302"
   height="31.733376"
   xml:space="preserve"
   sodipodi:docname="IBM-logo.svg"><metadata
     id="metadata8"><rdf:RDF><cc:Work
         rdf:about=""><dc:format>image/svg+xml</dc:format><dc:type
           rdf:resource="http://purl.org/dc/dcmitype/StillImage" /><dc:title></dc:title></cc:Work></rdf:RDF></metadata><defs
     id="defs6"><clipPath
       clipPathUnits="userSpaceOnUse"
       id="clipPath18"><path
         d="m 0,0 875,0 0,478.887 -875,0 L 0,0 z"
         id="path20"
         inkscape:connector-curvature="0" /></clipPath></defs><sodipodi:namedview
     pagecolor="#ffffff"
     bordercolor="#666666"
     borderopacity="1"
     objecttolerance="10"
     gridtolerance="10"
     guidetolerance="10"
     inkscape:pageopacity="0"
     inkscape:pageshadow="2"
     inkscape:window-width="2560"
     inkscape:window-height="1350"
     id="namedview4"
     showgrid="false"
     inkscape:zoom="18.592608"
     inkscape:cx="41.677926"
     inkscape:cy="13.760375"
     inkscape:window-x="0"
     inkscape:window-y="41"
     inkscape:window-maximized="1"
     inkscape:current-layer="g10"
     fit-margin-top="0"
     fit-margin-left="0"
     fit-margin-right="0"
     fit-margin-bottom="0" /><g
     id="g10"
     inkscape:groupmode="layer"
     inkscape:label="ink_ext_XXXXXX"
     transform="matrix(1.25,0,0,-1.25,-13.022075,47.90425)"><g
       id="g12"
       transform="scale(0.1,0.1)"><g
         id="g14"><g
           id="g16"
           clip-path="url(#clipPath18)"><path
             d="m 718.461,365.586 -102.234,0 6.289,17.629 95.945,0 0,-17.629"
             style="fill:#537fc9;fill-opacity:1;fill-rule:nonzero;stroke:none"
             id="path22"
             inkscape:connector-curvature="0" /><path
             d="m 445.883,383.223 94.941,0.011 6.219,-17.675 c 0.035,0.015 -101.125,-0.012 -101.125,0 0,0.015 -0.059,17.664 -0.035,17.664"
             style="fill:#537fc9;fill-opacity:1;fill-rule:nonzero;stroke:none"
             id="path24"
             inkscape:connector-curvature="0" /><path
             d="m 370.488,383.234 c 15.645,-1.523 29.242,-7.089 40.836,-17.668 0,0 -172.086,-0.019 -172.086,0 0,0.008 0,17.668 0,17.668 l 131.25,0"
             style="fill:#537fc9;fill-opacity:1;fill-rule:nonzero;stroke:none"
             id="path26"
             inkscape:connector-curvature="0" /><path
             d="m 104.195,365.605 119.543,0 0,17.6289 -119.543,0 0,-17.6289 z"
             style="fill:#537fc9;fill-opacity:1;fill-rule:nonzero;stroke:none"
             id="path28"
             inkscape:connector-curvature="0" /><path
             d="m 718.473,332.52 -113.969,0 c 0,0 6.219,17.531 6.176,17.539 l 107.793,0 0,-17.539"
             style="fill:#537fc9;fill-opacity:1;fill-rule:nonzero;stroke:none"
             id="path30"
             inkscape:connector-curvature="0" /><path
             d="m 558.789,332.492 -112.906,0 0,17.567 106.719,0 6.187,-17.567"
             style="fill:#537fc9;fill-opacity:1;fill-rule:nonzero;stroke:none"
             id="path32"
             inkscape:connector-curvature="0" /><path
             d="m 424.727,350.07 c 2.253,-5.8 4.945,-10.746 4.945,-17.55 l -190.402,0 0,17.55 185.457,0"
             style="fill:#537fc9;fill-opacity:1;fill-rule:nonzero;stroke:none"
             id="path34"
             inkscape:connector-curvature="0" /><path
             d="m 104.195,332.52 119.543,0 0,17.5508 -119.543,0 0,-17.5508 z"
             style="fill:#537fc9;fill-opacity:1;fill-rule:nonzero;stroke:none"
             id="path36"
             inkscape:connector-curvature="0" /><path
             d="m 592.848,299.355 6.25,17.629 85.574,-0.031 0,-17.558 -91.824,-0.04"
             style="fill:#537fc9;fill-opacity:1;fill-rule:nonzero;stroke:none"
             id="path38"
             inkscape:connector-curvature="0" /><path
             d="m 564.281,316.984 6.231,-17.629 -90.969,0 0,17.629 84.738,0"
             style="fill:#537fc9;fill-opacity:1;fill-rule:nonzero;stroke:none"
             id="path40"
             inkscape:connector-curvature="0" /><path
             d="m 431.188,316.984 c 0,-6.035 -0.758,-12.336 -2.516,-17.629 l -52.141,0 0,17.629 54.657,0"
             style="fill:#537fc9;fill-opacity:1;fill-rule:nonzero;stroke:none"
             id="path42"
             inkscape:connector-curvature="0" /><path
             d="m 137.516,299.355 51.3789,0 0,17.5508 -51.3789,0 0,-17.5508 z"
             style="fill:#537fc9;fill-opacity:1;fill-rule:nonzero;stroke:none"
             id="path44"
             inkscape:connector-curvature="0" /><path
             d="m 273.855,299.355 51.2969,0 0,17.6289 -51.2969,0 0,-17.6289 z"
             style="fill:#537fc9;fill-opacity:1;fill-rule:nonzero;stroke:none"
             id="path46"
             inkscape:connector-curvature="0" /><path
             d="m 530.074,280.324 c 0,0 0.02,-13.351 0.004,-13.371 l -50.535,0 0,17.539 96.297,0 5.98,-16.355 c 0.032,-0.012 5.762,16.402 5.782,16.355 l 97.043,0 0,-17.539 -50.286,0 c 0,0.02 -0.035,13.359 -0.035,13.359 l -4.64,-13.359 -94.965,0.02 -4.645,13.351"
             style="fill:#537fc9;fill-opacity:1;fill-rule:nonzero;stroke:none"
             id="path48"
             inkscape:connector-curvature="0" /><path
             d="m 273.855,284.512 147.258,0 c -3.226,-5.879 -9.066,-13.028 -14.609,-17.559 0,0 -132.649,-0.027 -132.649,0 0,0.02 0,17.512 0,17.559"
             style="fill:#537fc9;fill-opacity:1;fill-rule:nonzero;stroke:none"
             id="path50"
             inkscape:connector-curvature="0" /><path
             d="m 137.516,266.953 51.3789,0 0,17.5586 -51.3789,0 0,-17.5586 z"
             style="fill:#537fc9;fill-opacity:1;fill-rule:nonzero;stroke:none"
             id="path52"
             inkscape:connector-curvature="0" /><path
             d="m 634.359,233.879 50.2852,0 0,17.5352 -50.2852,0 0,-17.5352 z"
             style="fill:#537fc9;fill-opacity:1;fill-rule:nonzero;stroke:none"
             id="path54"
             inkscape:connector-curvature="0" /><path
             d="m 530.074,251.414 -50.531,0 0,-17.535 c -0.027,0.008 50.551,-0.02 50.551,0 0,0.008 0.051,17.535 -0.02,17.535"
             style="fill:#537fc9;fill-opacity:1;fill-rule:nonzero;stroke:none"
             id="path56"
             inkscape:connector-curvature="0" /><path
             d="m 624.199,251.414 c -0.23,0.024 -5.883,-17.527 -6.125,-17.535 l -71.625,-0.039 c -0.058,0.027 -6.297,17.598 -6.297,17.574 l 84.047,0"
             style="fill:#537fc9;fill-opacity:1;fill-rule:nonzero;stroke:none"
             id="path58"
             inkscape:connector-curvature="0" /><path
             d="m 273.852,251.414 132.402,0 c 6.047,-5.027 11.504,-11.25 15.781,-17.535 0.246,0.008 -148.18,-0.02 -148.18,0 0,0.008 -0.003,17.519 -0.003,17.535"
             style="fill:#537fc9;fill-opacity:1;fill-rule:nonzero;stroke:none"
             id="path60"
             inkscape:connector-curvature="0" /><path
             d="m 188.895,233.879 0,17.535 -51.293,0 c 0,0 0.011,-17.527 0,-17.527 -0.012,0 51.265,-0.008 51.293,-0.008"
             style="fill:#537fc9;fill-opacity:1;fill-rule:nonzero;stroke:none"
             id="path62"
             inkscape:connector-curvature="0" /><path
             d="m 634.359,200.789 50.2852,0 0,17.5508 -50.2852,0 0,-17.5508 z"
             style="fill:#537fc9;fill-opacity:1;fill-rule:nonzero;stroke:none"
             id="path64"
             inkscape:connector-curvature="0" /><path
             d="m 479.543,200.789 50.5312,0 0,17.5508 -50.5312,0 0,-17.5508 z"
             style="fill:#537fc9;fill-opacity:1;fill-rule:nonzero;stroke:none"
             id="path66"
             inkscape:connector-curvature="0" /><path
             d="m 606.316,200.703 c 0.016,0.086 6.2,17.656 6.297,17.637 l -60.883,0 c -0.109,0 6.239,-17.551 6.239,-17.551 0,0 48.34,-0.152 48.347,-0.086"
             style="fill:#537fc9;fill-opacity:1;fill-rule:nonzero;stroke:none"
             id="path68"
             inkscape:connector-curvature="0" /><path
             d="m 273.855,200.801 c 0,-0.067 -0.003,17.539 -0.003,17.539 l 52.05,0 c 0,0 0.051,-17.551 0,-17.551 -0.039,0 -52.047,0.023 -52.047,0.012"
             style="fill:#537fc9;fill-opacity:1;fill-rule:nonzero;stroke:none"
             id="path70"
             inkscape:connector-curvature="0" /><path
             d="m 429.34,218.34 c 2.519,-5.293 2.769,-11.57 3.273,-17.637 l -55.164,0 0,17.637 51.891,0"
             style="fill:#537fc9;fill-opacity:1;fill-rule:nonzero;stroke:none"
             id="path72"
             inkscape:connector-curvature="0" /><path
             d="m 137.602,200.801 51.2891,0 0,17.5391 -51.2891,0 0,-17.5391 z"
             style="fill:#537fc9;fill-opacity:1;fill-rule:nonzero;stroke:none"
             id="path74"
             inkscape:connector-curvature="0" /><path
             d="m 634.359,168.391 84.1016,0 0,17.5391 -84.1016,0 0,-17.5391 z"
             style="fill:#537fc9;fill-opacity:1;fill-rule:nonzero;stroke:none"
             id="path76"
             inkscape:connector-curvature="0" /><path
             d="m 445.879,168.391 84.1953,0 0,17.5391 -84.1953,0 0,-17.5391 z"
             style="fill:#537fc9;fill-opacity:1;fill-rule:nonzero;stroke:none"
             id="path78"
             inkscape:connector-curvature="0" /><path
             d="m 595.004,168.391 -25.68,0 -6.16,17.539 37.777,0 -5.937,-17.539"
             style="fill:#537fc9;fill-opacity:1;fill-rule:nonzero;stroke:none"
             id="path80"
             inkscape:connector-curvature="0" /><path
             d="m 104.184,185.938 0,-17.547 119.468,0 c 0.055,-0.032 -0.054,17.539 0,17.539 0.055,0 -119.605,0.008 -119.468,0.008"
             style="fill:#537fc9;fill-opacity:1;fill-rule:nonzero;stroke:none"
             id="path82"
             inkscape:connector-curvature="0" /><path
             d="m 430.43,185.938 c -1.254,-5.801 -2.41,-12.84 -6.641,-17.547 l -184.531,0 0,17.547 191.172,0"
             style="fill:#537fc9;fill-opacity:1;fill-rule:nonzero;stroke:none"
             id="path84"
             inkscape:connector-curvature="0" /><path
             d="m 583.363,135.266 -2.355,0 -6.012,17.586 14.531,0 -6.164,-17.586"
             style="fill:#537fc9;fill-opacity:1;fill-rule:nonzero;stroke:none"
             id="path86"
             inkscape:connector-curvature="0" /><path
             d="m 634.359,135.227 84.1016,0 0,17.625 -84.1016,0 0,-17.625 z"
             style="fill:#537fc9;fill-opacity:1;fill-rule:nonzero;stroke:none"
             id="path88"
             inkscape:connector-curvature="0" /><path
             d="m 239.238,135.266 0,17.566 c 0,0 172.598,-0.02 173.086,-0.02 -11.582,-11.093 -27.484,-17.343 -44.609,-17.585 l -128.457,0.027"
             style="fill:#537fc9;fill-opacity:1;fill-rule:nonzero;stroke:none"
             id="path90"
             inkscape:connector-curvature="0" /><path
             d="m 445.879,135.227 84.1953,0 0,17.625 -84.1953,0 0,-17.625 z"
             style="fill:#537fc9;fill-opacity:1;fill-rule:nonzero;stroke:none"
             id="path92"
             inkscape:connector-curvature="0" /><path
             d="m 223.652,152.773 c 0,0 -0.054,-17.507 0,-17.507 0.055,0 -119.429,-0.078 -119.468,-0.039 -0.028,0.039 0.035,17.605 0,17.605 -0.028,0 119.414,-0.105 119.468,-0.059"
             style="fill:#537fc9;fill-opacity:1;fill-rule:nonzero;stroke:none"
             id="path94"
             inkscape:connector-curvature="0" /><path
             d="m 731.586,145.363 c 0,8.75 7.102,15.907 15.871,15.907 8.691,0 15.762,-7.157 15.762,-15.907 0,-8.84 -7.071,-15.996 -15.762,-15.996 -8.769,0 -15.871,7.156 -15.871,15.996 z m 29.133,0 c 0,7.735 -5.586,13.797 -13.262,13.797 -7.746,0 -13.379,-6.062 -13.379,-13.797 0,-7.812 5.633,-13.886 13.379,-13.886 7.676,0 13.262,6.074 13.262,13.886 z m -5.391,-8.925 -2.57,0 -5.067,8.21 -3.964,0 0,-8.21 -2.161,0 0,17.8 7.715,0 c 4.688,0 6.25,-1.758 6.25,-4.707 0,-3.496 -2.39,-4.793 -5.547,-4.883 l 5.344,-8.21 z m -8.312,9.949 c 2.531,0 6.203,-0.43 6.203,3.183 0,2.785 -2.258,3.125 -4.426,3.125 l -5.066,0 0,-6.308 3.289,0"
             style="fill:#537fc9;fill-opacity:1;fill-rule:nonzero;stroke:none"
             id="path96"
             inkscape:connector-curvature="0" /></g></g></g></g></svg>